<svg width="806" height="1024" viewBox="0 0 806 1024" fill="none" xmlns="http://www.w3.org/2000/svg">
<path d="M406.813 45.2503C413.61 44.776 425.333 46.6019 432.546 47.1175C462.409 49.2524 490.469 56.4925 518.5 66.9135C700.51 134.582 783.345 345.898 670.255 510.875C653.83 534.565 634.085 555.765 611.62 573.83C601.49 582.055 590.98 589.245 580.485 596.93C568.965 605.49 557.555 614.205 546.265 623.065C513.065 648.81 481.696 676.835 452.394 706.945C442.073 717.68 432.009 728.655 422.21 739.87C416.749 746.175 411.533 752.86 405.813 758.91C404.206 760.605 404.081 760.74 402.096 761.11C393.93 754.425 377.527 734.19 369.376 725.505C350.489 705.38 332.576 686.395 311.949 667.85C287.811 646.275 262.83 625.655 237.063 606.05C212.143 587.015 191.986 573.9 169.433 551.475C105.142 487.549 73.4549 393.826 87.9519 304.181C113.241 147.803 252.274 45.982 406.813 45.2503Z" fill="#1A432C"/>
<path d="M389.914 107.718C457.578 103.858 524.08 126.527 575.3 170.911C672.295 255.965 686.44 395.922 599.425 493.666C552.035 546.895 488.075 576.39 417.192 580.95C402.988 581.23 389.704 581.245 375.562 579.765C320.886 573.99 269.353 551.375 228.081 515.05C173.411 466.301 142.032 396.394 150.37 322.526C164.201 199.989 269.205 114.136 389.914 107.718Z" fill="#FDFDFD"/>
<path d="M446.203 226.593C456.009 225.921 457.709 231.131 461.678 238.819C465.962 236.908 474.577 233.845 478.898 236.515C481.823 242.223 469.557 247.626 465.531 249.717C469.193 255.75 470.771 258.629 476.865 262.063C477.631 261.802 478.398 261.545 479.167 261.294C486.479 258.908 495.913 257.777 502.775 261.754C513.79 268.515 522.265 277.298 531.79 286.222C548.12 301.523 560.555 321.016 559.95 344.129C559.815 349.346 556.54 359.644 557.35 363.997C559.155 373.694 561.83 386.095 564.775 395.471C573.385 400.731 574.78 401.387 572.9 411.535C574.73 410.54 577.72 408.761 579.615 409.519C587.46 412.651 608.115 439.186 612.04 445.083C610.045 449.367 604.825 457.398 602.16 461.291C586.525 484.266 566.605 504.005 543.49 519.435C488.295 556.79 420.493 570.625 355.074 557.875C307.69 548.805 263.954 526.37 229.322 492.475C222.165 485.471 215.457 476.785 209.292 468.861C231.302 447.25 267.588 429.633 297.749 424.217C310.319 421.959 322.447 420.826 335.137 419.901C337.499 418.227 344.233 411.727 346.484 409.406C352.107 403.609 358.901 398.688 364.583 393.535C370.074 388.555 387.926 379.788 390.382 375.43C396.359 364.826 401.138 370.473 410.049 363.949C423.807 353.878 436.118 340.661 447.942 328.392C446.589 318.568 448.801 313.833 449.656 304.567C450.522 295.18 451.411 287.723 454.871 278.76C455.233 277.822 455.257 276.984 454.726 276.151C452.908 276.62 449.45 279.687 446.373 281.082L445.843 281.318C443.403 278.935 440.094 274.433 437.281 272.304C436.269 272.165 435.42 272.049 434.734 271.955C433.77 270.976 433.001 264.053 432.674 262.092C428.518 263.722 419.165 268.218 415.37 265.569L415.211 264.344C416.992 259.704 423.968 255.327 428.059 252.418C427.921 235.568 426.087 230.803 446.203 226.593Z" fill="#1A432C"/>
<path d="M522.48 306.841C522.695 307.077 523.03 307.401 523.135 307.733C525.57 315.668 526.625 322.933 523.03 330.367C518.5 339.756 511.75 340.298 507.63 344.988C500.975 352.574 475.259 382.874 472.325 389.944C472.77 398.251 475.375 406.937 477.478 415.048C483.591 414.977 492.852 415.925 499.097 416.395C496.484 416.965 480.556 417.879 480.754 420.849C481.29 433.29 493.247 450.128 493.154 461.712C493.094 469.257 473.093 464.109 468.597 476.402C458.949 473.828 455.924 474.574 446.487 476.875C437.308 470.885 434.268 466.517 421.911 464.892C411.217 463.486 401.307 465.193 392.608 471.827C390.676 473.3 389.36 474.778 387.416 476.222L386.325 475.931C375.878 472.663 370.538 473.392 360.537 477.837C369.379 467.055 371.894 462.775 377.482 450.022C369.725 446.078 360.23 443.906 351.757 441.595C354.747 439.436 363.868 435.122 365.421 433.326C384.576 411.172 413.774 384.356 443.243 377.689C449.65 383.685 455.091 383.984 462.176 379.004C463.221 379.051 464.266 379.072 465.311 379.069C471.46 379.007 469.614 370.757 469.531 366.348C474.263 359.709 487.382 355.446 494.279 350.599C501.25 345.701 516.455 333.351 521.25 327.207C522.67 320.488 522.545 313.665 522.48 306.841Z" fill="#FDFDFD"/>
<path d="M541.905 367.984L542.255 368.68C537.085 376.262 527.995 383.824 522.12 391.568C526.15 397.51 543.95 418.34 549.655 423.697C558.97 430.52 569.35 437.264 579.13 443.287C597.78 454.767 577.895 461.821 571.135 470.729C570.985 472.703 571.035 474.786 570.145 476.483L568.88 476.607C552.65 473.294 543.555 467.296 526.315 476.029C523.47 459.98 517.96 442.831 514.105 426.928C511.895 417.804 509.525 408.374 507.03 399.355C518.545 389.143 531.87 379.27 541.905 367.984Z" fill="#FDFDFD"/>
<path d="M291.298 440.676C292.554 440.477 296.628 440.396 298.099 440.33C290.425 458.158 282.517 466.331 265.272 476.127C257.358 471.971 253.401 469.744 244.524 471.146C249.735 467.448 256.166 464.963 262.152 462.803C257.272 458.852 255.674 458.78 249.634 458.947C236.335 461.898 232.79 464.292 221.067 470.516C232.118 460.009 254.863 449.509 269.766 445.462C270.049 445.772 270.335 446.079 270.623 446.384C272.202 448.055 272.39 448.43 274.412 448.496C276.275 447.44 277.509 444.837 278.703 442.885C283.036 442.032 286.917 441.311 291.298 440.676Z" fill="#FDFDFD"/>
<path d="M491.348 309.737C492.832 311.2 494.212 316.567 495.148 319.074C499.453 321.734 506.43 323.403 511.47 325.057C509.755 324.936 495.785 323.8 495.348 324.096C479.246 335.029 469.847 352.377 450.489 358.382C447.911 361.094 446.875 363.047 445.001 366.257C438.556 367.306 434.087 368.044 427.575 368.095L419.019 368.637C441.997 356.08 450.817 350.867 469.117 331.564C469.885 325.502 470.756 319.277 471.19 313.197C477.259 317.982 480.414 321.955 487.477 325.604C491.707 318.975 491.611 317.556 491.348 309.737Z" fill="#FDFDFD"/>
<path d="M317.561 436.193C323.473 435.379 333.038 435.232 337.395 439.863C341.413 444.135 340.896 449.817 340.85 455.194L341.102 455.401L341.517 455.752C344.154 457.94 346.403 460.651 345.627 464.158C344.303 470.14 336.173 467.893 332.592 466.715C327.238 464.954 321.48 468.24 317.096 470.827C310.843 470.298 304.599 470.427 298.61 472.437C297.824 472.848 297.787 472.722 296.819 472.819L297.019 472.315C307.457 464.676 323.443 452.736 336.434 452.348C336.435 447.46 335.598 441.303 329.924 440.665C321.804 439.753 314.99 439.805 306.804 437.986C310.511 437.152 313.814 436.714 317.561 436.193Z" fill="#FDFDFD"/>
<path d="M406.555 375.638C410.9 375.783 416.455 376.37 420.88 376.711C400.172 382.979 376.418 400.381 362.818 417.171C361.203 419.608 355.006 417.753 352.262 417.276C365.096 401.413 383.53 386.764 403.101 380.489C404.279 378.892 405.431 377.274 406.555 375.638Z" fill="#FDFDFD"/>
<path d="M634.32 836.085C635.355 836.05 636.39 836.025 637.42 836C711.55 834.43 727.8 929.39 657.38 949.925C653.705 950.995 650.19 951.015 646.375 951.03C643.42 951.5 640.705 951.32 637.81 951.3C569.025 950.83 555.635 855.95 622.385 838.57C626.335 837.54 630.355 837.095 634.32 836.085ZM644.15 927.155C662.58 925.04 675.815 908.405 673.73 889.975C671.645 871.545 655.03 858.28 636.595 860.335C618.12 862.395 604.825 879.06 606.91 897.53C609 916.005 625.685 929.275 644.15 927.155Z" fill="#1A432C"/>
<path d="M111.661 837.545C120.53 837.31 129.947 837.425 138.817 837.425C150.489 837.685 162.373 836.66 173.889 839.235C196.81 844.355 211.878 864.04 206.345 887.665C203.442 900.065 195.807 906.735 185.271 912.975C186.287 915 193.038 924.915 194.757 927.305C199.177 933.45 205.369 944.22 210.116 949.475L197.125 949.44C190.975 949.465 184.825 949.44 178.676 949.365C171.414 940.22 165.733 928.905 158.348 919.845C156.623 917.73 139.889 919.03 136.632 919.095C136.227 928.135 136.691 940.26 136.828 949.42C132.96 949.445 110.521 950.085 108.905 948.705C107.532 943.43 107.964 928.855 107.956 922.415L107.941 880.87L107.965 854.075C107.972 850.355 107.801 843.275 108.192 839.815C109.073 838.295 109.901 838.225 111.661 837.545ZM136.498 895.37C148.129 893.805 163.815 898.57 172.799 890.32C182.845 881.04 178.237 864.4 165.556 861.52C158.179 859.845 144.745 861.19 136.513 860.975C136.666 872.23 136.785 884.125 136.498 895.37Z" fill="#1A432C"/>
<path d="M470.8 837.61C475.563 837.155 486.123 837.39 491.253 837.455C505.78 837.74 520.045 836.355 534.375 839.335C558.35 844.315 572.395 864.14 566.645 888.365C563.7 900.75 555.91 906.68 545.64 913C551.105 921.55 557.31 929.87 562.77 938.475C565.105 942.155 567.71 945.98 570.365 949.425L557.625 949.43L539.99 949.39C535.385 944.89 522.87 924.93 518.545 918.395C510.415 919.075 504.965 918.475 497.02 918.65C496.962 928.885 497.105 939.115 497.451 949.34C493.934 949.595 471.802 949.81 469.333 949.08C467.571 941.385 468.457 921.3 468.465 912.665L468.436 866.905C468.467 858.4 468.351 848.24 468.684 839.6C468.72 838.655 469.731 838.33 470.8 837.61ZM497.106 895.455C508.14 895.04 520.725 896.095 530.72 893.16L533.545 890.17C546.02 879.19 535.805 858.76 518.875 860.855C514.25 861.43 501.795 861.16 497.006 860.875L497.106 895.455Z" fill="#1A432C"/>
<path d="M262.039 837.725C266.838 837.175 283.081 837.095 287.169 837.845C291.108 838.565 301.799 865.16 303.895 869.74C311.345 885.835 318.688 901.98 325.924 918.17C330.451 928.23 335.302 939.675 340.205 949.45C334.99 949.425 314.788 950.535 311.698 949.065C307.04 946.845 302.262 931.96 300.31 926.965L288.75 926.96L249.947 926.925C247.745 931.615 245.469 937.96 243.416 942.845C239.502 952.15 234.747 949.53 226.427 949.565C220.927 949.59 215.731 949.51 210.466 949.1C213.112 944.625 218.877 930.935 221.454 925.39L249.918 862.595C251.929 858.11 259.142 840.305 262.039 837.725ZM259.013 905.57C261.884 905.475 275.486 904.555 276.877 904.7L277.535 904.735C283.623 905.025 283.976 903.935 291.161 905.635C289.89 902.18 275.836 869.375 274.944 868.83C269.367 881 265.099 893.54 259.013 905.57Z" fill="#1A432C"/>
<path d="M397.38 836.1L399.978 836.045C421.691 835.66 434.494 840.545 450.071 855.62C447.367 858.72 435.867 870.12 432.678 871.485C427.722 868.945 423.656 865.22 418.286 862.905C408.805 858.805 398.072 858.695 388.51 862.605C371.545 869.615 365.026 892.285 372.057 908.495C375.473 916.365 381.907 922.535 389.915 925.62C399.529 929.23 412.065 928.115 421.425 923.895C421.29 913.145 421.298 902.395 421.447 891.65C427.36 891.13 430.27 890.035 436.625 890.3C439.556 890.34 448.104 890.1 448.267 894.31C448.756 906.89 448.64 919.59 448.657 932.21C448.671 941.93 428.764 947.69 421.137 949.615C402.487 953.535 382.688 952.025 366.264 941.65C353.546 933.645 344.602 920.835 341.461 906.14C338.064 890.44 341.625 874.29 350.461 860.78C358.82 848 370.453 842.605 384.71 838.455C387.659 837.6 393.817 836.85 397.38 836.1Z" fill="#1A432C"/>
</svg>
