<svg width="581" height="583" viewBox="0 0 581 583" fill="none" xmlns="http://www.w3.org/2000/svg">
<rect width="581" height="583" rx="150" fill="url(#paint0_radial_1001_17)"/>
<path d="M293.252 94.1161C297.266 93.8424 304.189 94.8962 308.449 95.1938C326.085 96.4259 342.657 100.605 359.211 106.619C466.701 145.674 515.621 267.634 448.833 362.851C439.133 376.523 427.472 388.759 414.205 399.185C408.222 403.932 402.015 408.082 395.817 412.517C389.014 417.458 382.276 422.487 375.608 427.601C356.001 442.46 337.476 458.634 320.171 476.012C314.076 482.208 308.132 488.542 302.345 495.015C299.12 498.654 296.039 502.512 292.661 506.004C291.712 506.982 291.639 507.06 290.466 507.273C285.644 503.415 275.957 491.737 271.143 486.724C259.989 475.109 249.41 464.152 237.228 453.449C222.973 440.997 208.22 429.096 193.003 417.781C178.286 406.795 166.382 399.225 153.062 386.283C115.094 349.388 96.3804 295.296 104.942 243.558C119.877 153.304 201.986 94.5384 293.252 94.1161Z" fill="white"/>
<path d="M283.272 130.169C323.232 127.941 362.506 141.025 392.755 166.641C450.038 215.73 458.391 296.506 407.003 352.918C379.016 383.64 341.243 400.663 299.381 403.294C290.993 403.456 283.148 403.465 274.796 402.61C242.506 399.277 212.072 386.225 187.698 365.26C155.412 337.125 136.88 296.778 141.804 254.145C149.972 183.423 211.985 133.873 283.272 130.169Z" fill="#FDFDFD"/>
<path d="M316.514 198.778C322.306 198.39 323.31 201.397 325.654 205.834C328.184 204.731 333.272 202.963 335.823 204.504C337.551 207.799 330.307 210.917 327.929 212.124C330.092 215.606 331.024 217.267 334.623 219.249C335.075 219.098 335.528 218.95 335.982 218.805C340.3 217.428 345.872 216.776 349.924 219.071C356.429 222.973 361.434 228.042 367.06 233.192C376.704 242.023 384.047 253.274 383.69 266.613C383.61 269.625 381.676 275.568 382.155 278.08C383.221 283.677 384.8 290.834 386.54 296.245C391.624 299.281 392.448 299.66 391.338 305.516C392.419 304.942 394.185 303.915 395.304 304.353C399.937 306.161 412.135 321.476 414.453 324.879C413.275 327.351 410.192 331.986 408.618 334.233C399.385 347.493 387.62 358.886 373.969 367.791C341.373 389.35 301.331 397.335 262.697 389.977C234.713 384.742 208.884 371.794 188.431 352.231C184.204 348.189 180.243 343.176 176.602 338.602C189.6 326.13 211.03 315.962 228.842 312.836C236.265 311.533 243.428 310.879 250.922 310.345C252.317 309.379 256.294 305.627 257.624 304.288C260.944 300.942 264.957 298.102 268.312 295.128C271.555 292.254 282.098 287.194 283.548 284.679C287.078 278.559 289.901 281.818 295.163 278.053C303.288 272.24 310.559 264.612 317.541 257.531C316.743 251.861 318.049 249.128 318.554 243.78C319.065 238.362 319.59 234.059 321.634 228.886C321.848 228.344 321.861 227.861 321.548 227.38C320.474 227.651 318.432 229.421 316.615 230.226L316.302 230.362C314.861 228.987 312.907 226.389 311.245 225.16C310.648 225.08 310.147 225.013 309.741 224.958C309.172 224.393 308.717 220.398 308.525 219.266C306.071 220.207 300.547 222.801 298.305 221.273L298.211 220.565C299.263 217.888 303.383 215.362 305.799 213.683C305.718 203.958 304.635 201.207 316.514 198.778Z" fill="#1A432C"/>
<path d="M361.561 245.093C361.688 245.229 361.886 245.416 361.948 245.607C363.386 250.187 364.009 254.381 361.886 258.671C359.211 264.09 355.225 264.403 352.791 267.11C348.861 271.488 333.674 288.975 331.941 293.056C332.204 297.85 333.743 302.863 334.985 307.545C338.595 307.504 344.064 308.05 347.752 308.321C346.209 308.651 336.803 309.178 336.92 310.892C337.236 318.073 344.297 327.791 344.243 334.476C344.207 338.831 332.395 335.86 329.74 342.955C324.042 341.469 322.255 341.9 316.682 343.228C311.261 339.77 309.466 337.25 302.169 336.312C295.853 335.501 290 336.486 284.863 340.314C283.722 341.164 282.945 342.018 281.797 342.851L281.153 342.683C274.983 340.797 271.829 341.218 265.923 343.783C271.145 337.56 272.63 335.09 275.93 327.73C271.349 325.453 265.741 324.2 260.737 322.866C262.503 321.62 267.89 319.13 268.807 318.093C280.119 305.307 297.363 289.831 314.766 285.983C318.55 289.443 321.763 289.615 325.948 286.741C326.565 286.768 327.182 286.781 327.799 286.779C331.43 286.744 330.34 281.982 330.291 279.437C333.086 275.605 340.834 273.145 344.907 270.348C349.024 267.521 358.003 260.393 360.835 256.847C361.674 252.969 361.6 249.032 361.561 245.093Z" fill="#FDFDFD"/>
<path d="M373.033 280.381L373.24 280.783C370.187 285.159 364.818 289.523 361.349 293.993C363.729 297.422 374.241 309.444 377.61 312.536C383.111 316.474 389.241 320.366 395.017 323.842C406.031 330.468 394.288 334.539 390.296 339.681C390.207 340.82 390.237 342.022 389.711 343.002L388.964 343.073C379.379 341.161 374.008 337.699 363.826 342.739C362.146 333.477 358.892 323.58 356.615 314.401C355.31 309.135 353.911 303.692 352.437 298.487C359.237 292.593 367.107 286.895 373.033 280.381Z" fill="#FDFDFD"/>
<path d="M225.032 322.336C225.774 322.221 228.18 322.174 229.049 322.136C224.517 332.425 219.846 337.142 209.662 342.796C204.988 340.398 202.651 339.112 197.409 339.921C200.486 337.787 204.284 336.353 207.819 335.106C204.937 332.826 203.994 332.784 200.427 332.881C192.573 334.584 190.479 335.965 183.556 339.558C190.082 333.494 203.515 327.434 212.316 325.098C212.483 325.277 212.652 325.454 212.822 325.63C213.755 326.594 213.866 326.811 215.06 326.849C216.16 326.24 216.889 324.737 217.594 323.611C220.153 323.118 222.445 322.702 225.032 322.336Z" fill="#FDFDFD"/>
<path d="M343.176 246.764C344.052 247.608 344.867 250.706 345.42 252.153C347.962 253.688 352.083 254.652 355.059 255.606C354.046 255.536 345.796 254.88 345.538 255.052C336.029 261.361 330.478 271.374 319.045 274.84C317.523 276.405 316.911 277.532 315.805 279.384C311.998 279.99 309.359 280.416 305.513 280.445L300.46 280.758C314.031 273.511 319.239 270.503 330.046 259.362C330.5 255.863 331.015 252.27 331.271 248.761C334.855 251.523 336.718 253.816 340.89 255.922C343.388 252.096 343.331 251.277 343.176 246.764Z" fill="#FDFDFD"/>
<path d="M240.543 319.748C244.034 319.278 249.683 319.193 252.256 321.866C254.629 324.332 254.323 327.611 254.296 330.714L254.445 330.834L254.69 331.036C256.247 332.299 257.575 333.864 257.117 335.888C256.336 339.34 251.534 338.043 249.419 337.364C246.257 336.347 242.857 338.244 240.268 339.737C236.575 339.431 232.888 339.506 229.351 340.666C228.886 340.903 228.864 340.83 228.293 340.886L228.411 340.596C234.575 336.187 244.016 329.296 251.688 329.072C251.689 326.251 251.194 322.697 247.844 322.329C243.048 321.802 239.024 321.832 234.189 320.783C236.379 320.301 238.33 320.049 240.543 319.748Z" fill="#FDFDFD"/>
<path d="M293.099 284.799C295.665 284.883 298.946 285.221 301.559 285.418C289.33 289.036 275.301 299.079 267.269 308.769C266.316 310.176 262.656 309.105 261.036 308.83C268.615 299.675 279.502 291.22 291.059 287.599C291.755 286.677 292.435 285.743 293.099 284.799Z" fill="#FDFDFD"/>
<defs>
<radialGradient id="paint0_radial_1001_17" cx="0" cy="0" r="1" gradientUnits="userSpaceOnUse" gradientTransform="translate(290.5 291.5) rotate(90) scale(291.5 290.5)">
<stop stop-color="#1A432C"/>
<stop offset="1" stop-color="#0F3525"/>
</radialGradient>
</defs>
</svg>
